<?xml version="1.0" encoding="UTF-8"?>
<svg id="Layer_2" data-name="Layer 2" xmlns="http://www.w3.org/2000/svg" xmlns:xlink="http://www.w3.org/1999/xlink" viewBox="0 0 50 49.91">
  <defs>
    <style>
      .cls-1 {
        fill: url(#linear-gradient-2);
      }

      .cls-2 {
        fill: url(#linear-gradient);
      }
    </style>
    <linearGradient id="linear-gradient" x1="5.1" y1="5.8" x2="44.91" y2="39.81" gradientUnits="userSpaceOnUse">
      <stop offset="0" stop-color="#3b82f6"/>
      <stop offset="1" stop-color="#9333ea"/>
    </linearGradient>
    <linearGradient id="linear-gradient-2" x1="4.43" y1="9.51" x2="44.24" y2="43.52" xlink:href="#linear-gradient"/>
  </defs>
  <g id="Layer_1-2" data-name="Layer 1">
    <g>
      <path class="cls-2" d="M49.99,24.29c-.01-.37-.07-4.02-.52-4.16-1.61-.49-3.65-.5-5.21-1-.19-.06-.38-.08-.49-.27-.06-.71-1.23-2.62-1.13-3.13.02-.12,1-1.69,1.17-1.95.34-.52,1.93-2.38,1.83-2.87-.05-.26-1.24-1.73-1.5-2.06-1.47-1.79-3.24-3.32-5.15-4.6-1.63,1.01-3.23,2.18-4.86,3.24l-3.56,8.72.03.16,7.72,6.29c.11.11.11.24.12.38.07.55.07,3.57-.06,4.01-.07.24-2.02,1.92-2.39,2.23-.15.12-.36.15-.53.3-2.08,1.74-4.17,3.48-6.27,5.2v-4.37c.46-.48,1.04-.83,1.53-1.26.53-.47,1.06-1.01,1.61-1.47,1.08-.89,2.27-1.68,3.33-2.6,0-.21-.35-.49-.51-.63-1.68-1.6-3.88-2.95-5.59-4.55-.18-.12-.39-.31-.56-.08l-9.67,23.29-.16.99,1.11,5.39c3.1.56,6.35.55,9.46,0l1.13-5.49.17-.21,3.14-1.25,4.81,3.11c2.16-1.53,4.16-3.25,5.78-5.37.25-.33.93-1.12.87-1.49l-2.96-4.41c-.1-.17-.08-.34-.04-.53.04-.22,1.12-2.84,1.25-2.95.95-.81,3.19-.52,4.34-.88,1.2-.37,1.31-.4,1.5-1.61.01-.09.03-.2.05-.31.19-1.27.25-2.56.21-3.83Z"/>
      <path class="cls-1" d="M19.29,33.58c-2.62-2.03-5.09-4.2-7.67-6.28l-.04-4.61c2.7-2.19,5.32-4.5,8.03-6.67.14-.11,1.25-.98,1.33-.89v4.37c-1.79,1.73-4.07,3.1-5.89,4.76-.15.14-.72.62-.69.8,2.01,1.57,3.89,3.33,5.89,4.9.2.16.58.54.75.25L30.91,6.09l-1.13-5.63c-3.13-.59-6.45-.61-9.58,0l-1.07,5.46c-.97.65-2.21.99-3.31,1.46-1.67-.95-3.15-2.24-4.82-3.12-2.63,1.78-5.04,4.03-6.67,6.76l3.15,4.72-1.25,3.24c-.18.33-4.99.97-5.71,1.17-.73,3.12-.64,6.43-.06,9.58l5.64,1.2,1.37,3.19c-.5.83-1.01,1.66-1.54,2.47-.26.4-1.66,2.15-1.59,2.43.05.18,1.57,2.08,1.82,2.38.64.73,1.62,1.7,2.35,2.34.37.33,1.95,1.65,2.29,1.77.18.07.32.11.5.01l4.56-3.08,3.54-8.6-.12-.24Z"/>
    </g>
  </g>
</svg>